<svg xmlns="http://www.w3.org/2000/svg" viewBox="0 0 256 256" role="img" aria-labelledby="title"><title id="title">Budget Buddy — Formal / Clarendon-style Dollar</title><desc>Formal mirrored B’s with a Clarendon-style slab-serif gold dollar sign. Mirrored capital B letters in two purple shades share a gold dollar-sign spine, flush with the top and bottom of the letters.</desc>
<path d="M128 44H163C191 44 207 59 207 80V91C207 105 199 116 185 123C204 129 215 143 215 161V174C215 199 195 214 164 214H128Z
M128 72H160C173 72 181 79 181 91C181 103 173 110 160 110H128Z
M128 138H163C180 138 188 146 188 161V166C188 179 179 186 163 186H128Z" transform="matrix(-1 0 0 1 256 0)" fill="#5B249F" fill-rule="evenodd"/>
<path d="M128 44H163C191 44 207 59 207 80V91C207 105 199 116 185 123C204 129 215 143 215 161V174C215 199 195 214 164 214H128Z
M128 72H160C173 72 181 79 181 91C181 103 173 110 160 110H128Z
M128 138H163C180 138 188 146 188 161V166C188 179 179 186 163 186H128Z" fill="#9B63DC" fill-rule="evenodd"/>
<path d="M53.00000 44.40000 L44.50000 43.80000 Q43.50000 48.30000 40.60000 50.80000 Q37.70000 53.30000 33.20000 54.10000 L33.20000 43.20000 Q38.10000 42.30000 42.30000 41.25000 Q46.50000 40.20000 49.55000 38.40000 Q52.60000 36.60000 54.35000 33.80000 Q56.10000 31.00000 56.10000 26.70000 Q56.10000 21.90000 54.00000 18.85000 Q51.90000 15.80000 48.60000 14.00000 Q45.30000 12.20000 41.25000 11.55000 Q37.20000 10.90000 33.20000 10.90000 L33.20000 0.00000 L27.90000 0.00000 L27.90000 11.30000 Q25.60000 11.60000 23.85000 12.20000 Q22.10000 12.80000 20.70000 13.40000 Q19.30000 14.00000 18.20000 14.45000 Q17.10000 14.90000 16.20000 14.90000 Q15.40000 14.90000 14.90000 14.40000 Q14.40000 13.90000 13.70000 12.10000 L5.40000 11.50000 L5.40000 29.30000 L13.70000 29.80000 Q14.60000 25.50000 18.65000 22.80000 Q22.70000 20.10000 27.90000 19.20000 L27.90000 30.50000 Q22.00000 31.50000 17.75000 32.85000 Q13.50000 34.20000 10.75000 36.15000 Q8.00000 38.10000 6.70000 40.90000 Q5.40000 43.70000 5.40000 47.60000 Q5.40000 54.50000 10.25000 58.55000 Q15.10000 62.60000 24.20000 62.60000 Q26.10000 62.60000 27.90000 62.30000 L27.90000 74.30000 L33.20000 74.30000 L33.20000 61.40000 Q36.30000 60.60000 38.55000 59.50000 Q40.80000 58.40000 42.20000 58.40000 Q44.10000 58.40000 45.20000 61.60000 L53.00000 61.60000 Z M33.20000 18.80000 Q37.10000 18.80000 39.10000 20.15000 Q41.10000 21.50000 41.10000 23.90000 Q41.10000 26.50000 38.90000 27.70000 Q36.70000 28.90000 33.20000 29.60000 Z M27.90000 54.60000 Q23.70000 54.20000 21.95000 53.15000 Q20.20000 52.10000 20.20000 50.10000 Q20.20000 47.50000 22.35000 46.30000 Q24.50000 45.10000 27.90000 44.30000 Z" transform="matrix(1.57790927 0 0 -1.93808883 79.79487179 201.00000000)" fill="#D5A33C"/>
<rect x="117" y="44" width="22" height="170" fill="#D5A33C"/>
</svg>
